<?xml version="1.0" encoding="UTF-8" standalone="no"?>
<svg width="312px" height="39px" viewBox="0 0 312 39" version="1.1" xmlns="http://www.w3.org/2000/svg" xmlns:xlink="http://www.w3.org/1999/xlink" xmlns:sketch="http://www.bohemiancoding.com/sketch/ns">
    <!-- Generator: Sketch 3.1 (8751) - http://www.bohemiancoding.com/sketch -->
    <title>autumnary</title>
    <desc>Created with Sketch.</desc>
    <defs>
        <linearGradient x1="50%" y1="0%" x2="50%" y2="100%" id="linearGradient-1">
            <stop stop-color="#FFFFFF" offset="0%"></stop>
            <stop stop-color="#CDCDCD" offset="100%"></stop>
        </linearGradient>
    </defs>
    <g id="Page-1" stroke="none" stroke-width="1" fill="none" fill-rule="evenodd" sketch:type="MSPage">
        <g id="autumnary" sketch:type="MSLayerGroup" fill="url(#linearGradient-1)">
            <path d="M300.784,20.143 C300.623,20.627 300.263,21.255 299.983,21.54 C299.983,21.54 299.983,21.54 299.788,21.872 C299.592,22.204 299.397,22.546 299.202,22.897 C299.006,23.327 298.792,23.737 298.558,24.128 C298.323,24.519 298.03,24.87 297.679,25.183 C297.482,25.769 297.288,26.228 297.093,26.56 C296.896,26.892 296.585,27.272 296.155,27.702 C295.765,29.265 294.846,30.964 293.401,32.8 C293.362,33.151 293.255,33.493 293.079,33.825 C292.903,34.157 292.718,34.479 292.522,34.792 C292.443,34.909 292.366,35.036 292.288,35.173 C292.209,35.31 292.15,35.417 292.112,35.495 C292.048,35.817 291.811,36.345 291.585,36.667 C291.585,36.667 291.585,36.667 291.351,36.901 C291.116,37.136 290.901,37.35 290.706,37.546 C290.627,37.663 290.491,37.818 290.296,38.015 C289.813,38.208 287.352,37.505 284.826,36.451 C284.826,36.451 284.826,36.451 284.202,33.796 C284.234,33.474 284.327,33.03 284.407,32.81 C284.407,32.81 284.407,32.81 284.466,32.595 C284.524,32.38 284.592,32.155 284.671,31.921 C284.826,31.374 285.013,30.827 285.228,30.28 C285.441,29.733 285.764,29.245 286.194,28.815 C286.272,28.542 286.448,28.103 286.722,27.497 C286.994,26.892 287.463,25.983 288.128,24.772 C288.675,23.835 289.104,23.093 289.417,22.546 C289.729,21.999 289.982,21.569 290.179,21.257 C289.788,20.632 289.319,20.065 288.772,19.557 C288.265,18.581 287.825,17.644 287.454,16.745 C287.082,15.847 286.8,15.045 286.604,14.342 C286.565,13.835 286.507,13.405 286.429,13.053 C286.35,12.702 286.272,12.331 286.194,11.94 C286.077,11.511 285.979,11.081 285.901,10.651 C285.822,10.222 285.784,9.772 285.784,9.303 C285.588,9.03 285.471,8.757 285.433,8.483 C285.497,8.161 285.611,7.611 285.687,7.263 C285.687,7.263 285.687,7.263 285.608,6.813 C285.529,6.364 285.433,5.905 285.315,5.436 C285.236,5.046 285.148,4.616 285.052,4.147 C284.954,3.678 284.925,3.209 284.964,2.741 C285.002,2.272 285.13,1.832 285.345,1.422 C285.559,1.012 285.921,0.651 286.429,0.338 C286.977,0.306 287.737,0.451 288.118,0.661 C288.118,0.661 288.118,0.661 288.45,0.836 C288.781,1.012 289.104,1.198 289.417,1.393 C289.847,1.589 290.257,1.784 290.647,1.979 C291.037,2.175 291.447,2.429 291.878,2.741 C292.104,3.192 292.46,3.706 292.669,3.883 C292.878,4.061 293.05,4.351 293.05,4.528 C293.05,4.705 293.076,5.017 293.108,5.222 C293.108,5.222 293.108,5.222 293.108,5.495 C293.108,6.003 293.187,6.315 293.343,6.432 C293.472,6.819 293.604,7.614 293.636,8.2 C293.636,8.2 293.636,8.2 293.753,8.688 C293.87,9.177 293.987,9.636 294.104,10.065 C294.222,10.495 294.339,10.944 294.456,11.413 C294.573,11.881 294.593,12.39 294.515,12.936 C294.749,12.819 294.944,12.683 295.101,12.526 C295.179,12.448 295.256,12.39 295.335,12.35 C295.413,12.312 295.49,12.253 295.569,12.174 C297.471,9.596 299,7.355 298.968,7.194 C298.936,7.033 299.187,6.637 299.524,6.315 C299.862,5.993 300.417,5.457 300.755,5.124 C300.755,5.124 300.755,5.124 301.048,4.85 C301.341,4.577 301.584,4.284 301.78,3.971 C302.135,3.713 303.787,2.079 305.451,0.338 C305.451,0.338 305.451,0.338 307.757,-0.13 C308.208,-0.195 308.63,-0.076 308.694,0.133 C308.759,0.343 309.026,0.883 309.289,1.334 C309.289,1.334 309.289,1.334 309.778,1.686 C310.267,2.038 310.783,2.37 311.331,2.682 C311.621,2.875 311.99,3.341 312.151,3.718 C312.151,3.718 312.151,3.718 312.151,3.913 C312.151,4.108 312.131,4.284 312.093,4.44 C312.222,4.762 312.015,5.755 311.633,6.647 C311.633,6.647 311.633,6.647 311.185,7.077 C310.735,7.507 310.296,7.897 309.866,8.249 C309.515,8.562 309.192,8.845 308.899,9.098 C308.606,9.353 308.381,9.675 308.226,10.065 C308,10.323 307.209,11.026 306.468,11.628 C306.468,11.628 306.468,11.628 306.233,12.409 C306.137,12.795 305.899,13.112 305.706,13.112 C305.513,13.112 305.298,13.143 305.228,13.181 C305.228,13.181 305.228,13.181 305.091,13.317 C304.953,13.454 304.748,13.796 304.476,14.342 C304.202,14.733 304.007,14.987 303.89,15.104 C303.772,15.221 303.675,15.319 303.597,15.397 C303.558,15.554 303.509,15.7 303.45,15.836 C303.392,15.974 303.323,16.14 303.245,16.334 C302.737,16.843 302.425,17.224 302.308,17.477 C302.19,17.731 302.053,18.015 301.897,18.327 C301.741,18.64 301.595,18.942 301.458,19.235 C301.32,19.528 301.097,19.831 300.784,20.143" id="Y" sketch:type="MSShapeGroup"></path>
            <path d="M268.265,10.182 C267.834,10.808 267.356,11.374 266.829,11.881 C266.302,12.39 265.794,12.907 265.306,13.434 C264.816,13.961 264.377,14.547 263.987,15.192 C263.597,15.836 263.322,16.589 263.167,17.448 C264.534,17.292 265.959,16.911 267.444,16.305 C268.929,15.7 270.335,15.124 271.663,14.577 C271.507,13.366 271.086,12.39 270.403,11.647 C269.72,10.905 269.006,10.417 268.265,10.182 L268.265,10.182 Z M259.886,30.28 C259.455,31.843 259.074,33.024 258.743,33.825 C258.411,34.626 257.913,35.456 257.249,36.315 C256.741,36.237 256.39,36.296 256.194,36.491 C255.998,36.686 255.784,36.861 255.55,37.019 C255.198,37.096 254.943,37.096 254.788,37.019 C254.632,36.939 254.495,36.852 254.378,36.755 C254.261,36.656 254.114,36.559 253.938,36.462 C253.763,36.364 253.499,36.315 253.147,36.315 C253.068,36.003 252.98,35.71 252.884,35.437 C252.786,35.163 252.522,35.065 252.093,35.144 C252.171,34.831 252.189,34.567 252.151,34.353 C252.112,34.138 252.063,33.942 252.005,33.767 C251.946,33.591 251.896,33.415 251.858,33.239 C251.819,33.063 251.838,32.839 251.917,32.565 C251.721,32.565 251.565,32.429 251.448,32.155 C251.331,31.882 251.193,31.608 251.038,31.335 C251.155,30.632 251.272,29.968 251.39,29.343 C251.507,28.718 251.653,28.132 251.829,27.585 C252.005,27.038 252.151,26.491 252.269,25.944 C252.386,25.397 252.327,24.831 252.093,24.245 C252.248,24.362 252.365,24.333 252.444,24.157 C252.522,23.981 252.581,23.747 252.62,23.454 C252.658,23.161 252.679,22.868 252.679,22.575 C252.679,22.282 252.658,22.038 252.62,21.843 C253.01,20.827 253.332,19.782 253.587,18.708 C253.841,17.634 254.075,16.569 254.29,15.514 C254.504,14.459 254.729,13.425 254.964,12.409 C255.198,11.394 255.511,10.456 255.901,9.596 C256.331,9.519 256.81,9.567 257.337,9.743 C257.864,9.918 258.187,10.144 258.304,10.417 C259.319,9.636 260.217,8.688 260.999,7.575 C261.78,6.461 262.581,5.377 263.401,4.323 C264.222,3.268 265.13,2.331 266.126,1.51 C267.122,0.69 268.382,0.202 269.905,0.045 C270.687,0.631 271.555,1.228 272.513,1.832 C273.47,2.438 274.261,3.229 274.886,4.206 C275.198,4.362 275.462,4.528 275.677,4.704 C275.891,4.879 276.154,5.065 276.468,5.26 C276.468,5.647 276.851,6.381 277.317,6.892 C277.317,6.892 277.317,6.892 277.61,7.457 C277.903,8.024 278.167,8.629 278.401,9.274 C278.636,9.918 278.87,10.563 279.104,11.208 C279.339,11.852 279.611,12.467 279.925,13.053 C279.846,13.249 279.808,13.415 279.808,13.551 C279.808,13.688 279.837,13.835 279.896,13.991 C279.954,14.147 280.003,14.304 280.042,14.459 C280.08,14.616 280.08,14.831 280.042,15.104 C279.925,16.823 279.368,18.209 278.372,19.264 C277.376,20.319 276.175,21.188 274.769,21.872 C273.362,22.556 271.858,23.132 270.257,23.601 C268.654,24.069 267.21,24.577 265.921,25.124 C265.921,25.28 265.988,25.358 266.126,25.358 C266.263,25.358 266.311,25.456 266.272,25.651 C267.21,26.237 267.951,26.706 268.499,27.058 C269.046,27.409 269.563,27.702 270.052,27.937 C270.54,28.171 271.067,28.376 271.634,28.552 C272.199,28.728 272.99,28.933 274.007,29.167 C275.022,29.401 275.813,29.587 276.38,29.724 C276.945,29.86 277.464,29.978 277.933,30.075 C278.401,30.173 278.879,30.251 279.368,30.31 C279.856,30.368 280.549,30.437 281.448,30.515 C281.8,30.866 282.102,31.286 282.356,31.774 C282.61,32.263 282.775,32.751 282.854,33.239 C282.933,33.728 282.951,34.196 282.913,34.646 C282.874,35.095 282.737,35.456 282.503,35.73 C282.541,35.847 282.629,35.896 282.767,35.876 C282.903,35.856 283.05,35.866 283.206,35.905 C282.972,36.062 282.775,36.257 282.62,36.491 C282.464,36.726 282.307,36.96 282.151,37.194 C281.995,37.429 281.819,37.634 281.624,37.81 C281.428,37.985 281.155,38.092 280.804,38.132 C279.593,38.601 278.069,38.63 276.233,38.22 C274.396,37.81 272.073,37.057 269.261,35.964 C267.854,35.417 266.712,34.938 265.833,34.528 C264.954,34.118 264.192,33.708 263.548,33.298 C262.903,32.888 262.317,32.448 261.79,31.98 C261.263,31.511 260.627,30.944 259.886,30.28 L259.886,30.28 Z" id="R" sketch:type="MSShapeGroup"></path>
            <path d="M229.651,21.315 C230.823,21.237 231.887,21.149 232.845,21.052 C233.802,20.954 234.866,20.788 236.038,20.553 C235.765,19.381 235.472,18.161 235.159,16.891 C234.846,15.622 234.515,14.362 234.163,13.112 C233.97,13.434 233.122,14.48 232.278,15.437 C232.278,15.437 232.278,15.437 231.556,16.452 C230.832,17.468 230.217,18.425 229.71,19.323 C229.476,19.674 229.241,20.026 229.007,20.377 C228.772,20.729 228.558,21.081 228.362,21.433 C228.597,21.394 228.821,21.374 229.036,21.374 C229.25,21.374 229.455,21.355 229.651,21.315 L229.651,21.315 Z M246.702,31.218 C246.638,31.347 246.325,32.054 246.008,32.79 C246.008,32.79 246.008,32.79 245.56,33.474 C245.11,34.157 244.583,34.763 243.978,35.29 C243.371,35.817 242.697,36.257 241.956,36.608 C241.214,36.96 240.433,37.154 239.612,37.194 C239.104,37.077 238.763,36.949 238.587,36.813 C238.411,36.676 238.226,36.55 238.03,36.433 C237.913,36.354 237.805,36.286 237.708,36.228 C237.61,36.169 237.522,36.12 237.444,36.081 C237.058,35.92 236.794,35.616 236.858,35.407 C236.923,35.198 237.002,34.776 237.034,34.47 C237.034,34.47 237.034,34.47 236.917,34.294 C236.8,34.118 236.565,33.874 236.214,33.561 C236.097,33.444 235.979,33.327 235.862,33.21 C235.745,33.093 235.647,32.976 235.569,32.858 C235.021,32.246 234.929,31.653 235.364,31.54 C235.8,31.427 236.89,31.054 237.786,30.71 C237.786,30.71 237.786,30.71 238.118,30.28 C238.449,29.851 238.577,29.128 238.499,28.112 C237.717,27.956 237.063,27.937 236.536,28.054 C236.009,28.171 235.472,28.308 234.925,28.464 C234.222,28.659 233.509,28.825 232.786,28.962 C232.063,29.099 231.271,29.167 230.413,29.167 C230.1,29.167 229.807,29.157 229.534,29.138 C229.261,29.118 228.968,29.089 228.655,29.05 C228.333,28.985 227.999,28.63 227.913,28.259 C227.913,28.259 227.913,28.259 227.835,28.2 C227.756,28.142 227.679,28.073 227.601,27.995 C227.404,27.8 227.199,27.536 226.985,27.204 C226.771,26.872 226.722,26.452 226.839,25.944 C226.643,25.593 226.525,25.241 226.487,24.89 C226.253,25.358 226.077,25.847 225.96,26.355 C225.831,26.677 225.594,26.967 225.433,26.999 C225.271,27.031 225.078,27.114 225.002,27.185 C225.002,27.185 225.002,27.185 224.964,27.321 C224.925,27.458 224.905,27.565 224.905,27.644 C224.744,28.191 224.542,28.706 224.456,28.786 C224.456,28.786 224.456,28.786 224.378,28.845 C224.299,28.903 224.222,28.972 224.144,29.05 C224.064,29.401 223.968,29.753 223.851,30.105 C223.733,30.456 223.616,30.788 223.499,31.101 C223.303,31.608 223.138,32.106 223.001,32.595 C222.863,33.083 222.815,33.561 222.854,34.03 C222.726,34.385 222.436,34.864 222.21,35.095 C222.21,35.095 222.21,35.095 221.976,35.231 C221.741,35.368 221.507,35.495 221.272,35.612 C221.193,35.69 221.087,35.759 220.95,35.817 C220.813,35.876 220.706,35.925 220.628,35.964 C220.531,36.318 220.294,36.635 220.101,36.667 C219.907,36.699 219.419,36.787 219.017,36.861 C219.017,36.861 219.017,36.861 218.841,36.901 C218.665,36.939 218.46,36.96 218.226,36.96 C217.903,36.928 217.297,36.616 216.878,36.267 C216.878,36.267 216.878,36.267 216.644,36.052 C216.409,35.837 216.136,35.632 215.823,35.437 C215.472,34.968 215.276,34.616 215.237,34.382 C215.199,34.147 215.159,33.933 215.12,33.737 C215.042,33.503 214.994,33.308 214.974,33.151 C214.954,32.995 214.906,32.878 214.827,32.8 C214.408,32.413 214.21,31.978 214.388,31.833 C214.565,31.688 214.724,31.345 214.739,31.071 C214.755,30.798 215.493,28.815 216.38,26.667 C216.38,26.667 216.38,26.667 217.259,24.831 C218.138,22.995 219.046,21.12 219.983,19.206 C220.296,18.581 220.599,17.956 220.892,17.331 C221.185,16.706 221.486,16.081 221.8,15.456 C221.761,15.338 221.741,15.202 221.741,15.045 C221.741,14.89 221.779,14.714 221.858,14.518 C222.288,13.855 222.64,13.258 222.913,12.731 C223.186,12.204 223.46,11.667 223.733,11.12 C224.046,10.456 224.368,9.812 224.7,9.186 C225.031,8.562 225.452,7.917 225.96,7.252 C226.476,7.027 227.012,6.803 227.151,6.754 C227.151,6.754 227.151,6.754 227.308,6.696 C227.463,6.637 227.639,6.608 227.835,6.608 C228.318,6.672 229.637,6.176 230.765,5.505 C230.765,5.505 230.765,5.505 231.585,4.586 C232.405,3.669 233.245,2.565 234.104,1.276 C234.427,0.825 234.862,0.561 235.071,0.69 C235.28,0.819 235.663,1.025 235.921,1.149 C235.921,1.149 235.921,1.149 236.272,1.247 C236.624,1.345 236.995,1.452 237.386,1.569 C238.089,1.726 238.753,1.901 239.378,2.096 C240.002,2.292 240.511,2.585 240.901,2.975 C241.136,3.601 241.272,4.069 241.312,4.381 C241.35,4.694 241.408,5.007 241.487,5.319 C241.604,5.983 241.712,6.647 241.81,7.311 C241.906,7.976 241.976,8.717 242.015,9.538 C242.21,10.202 242.375,10.856 242.513,11.501 C242.649,12.145 242.776,12.8 242.894,13.463 C243.089,14.401 243.283,15.309 243.479,16.188 C243.675,17.067 243.928,17.897 244.241,18.678 C244.554,18.678 244.748,18.698 244.827,18.737 C245.022,18.659 245.228,18.601 245.442,18.561 C245.656,18.522 245.901,18.483 246.175,18.444 C246.529,18.412 246.872,18.517 246.937,18.678 C247.001,18.839 247.159,19.147 247.288,19.362 C247.288,19.362 247.288,19.362 247.64,19.557 C248.146,19.597 248.519,19.704 248.753,19.879 C248.987,20.055 249.201,20.241 249.397,20.436 C249.553,20.593 249.71,20.71 249.866,20.788 C250.35,20.981 250.64,21.337 250.511,21.579 C250.382,21.821 249.851,22.638 249.329,23.396 C249.329,23.396 249.329,23.396 248.606,24.04 C247.883,24.685 247.073,25.222 246.175,25.651 C246.213,25.886 246.242,26.11 246.263,26.325 C246.282,26.54 246.33,26.765 246.409,26.999 C246.526,27.663 246.623,28.347 246.702,29.05 C246.78,29.753 246.78,30.476 246.702,31.218 L246.702,31.218 Z" id="A" sketch:type="MSShapeGroup"></path>
            <path d="M193.733,25.71 C193.382,25.788 193.127,25.993 192.972,26.325 C192.814,26.657 192.668,26.999 192.532,27.351 C192.395,27.702 192.258,28.024 192.122,28.317 C191.984,28.61 191.779,28.757 191.507,28.757 C191.467,29.069 191.36,29.343 191.185,29.577 C191.009,29.812 190.842,30.056 190.687,30.31 C190.529,30.563 190.412,30.837 190.335,31.13 C190.256,31.423 190.295,31.765 190.452,32.155 C190.139,32.39 189.943,32.722 189.866,33.151 C189.787,33.581 189.699,33.991 189.603,34.382 C189.504,34.772 189.339,35.104 189.104,35.378 C188.87,35.651 188.439,35.769 187.815,35.73 C187.698,35.886 187.678,35.983 187.757,36.022 C187.834,36.062 187.893,36.198 187.933,36.433 C187.502,36.354 187.18,36.383 186.966,36.52 C186.75,36.656 186.486,36.744 186.175,36.784 C185.432,36.55 184.816,36.14 184.329,35.554 C183.84,34.968 183.41,34.313 183.04,33.591 C182.668,32.868 182.337,32.136 182.044,31.394 C181.751,30.651 181.468,30.007 181.194,29.46 C181.312,29.03 181.331,28.61 181.253,28.2 C181.175,27.79 181.038,27.448 180.843,27.175 C182.756,23.112 184.846,18.776 187.112,14.167 C189.377,9.558 191.525,5.007 193.558,0.514 C194.455,0.866 195.345,1.267 196.224,1.715 C197.103,2.165 197.901,2.682 198.626,3.268 C199.349,3.854 199.964,4.528 200.472,5.29 C200.978,6.051 201.312,6.901 201.468,7.838 C201.388,8.073 201.3,8.161 201.204,8.102 C201.106,8.043 201.019,8.073 200.94,8.19 C201.095,8.386 201.183,8.522 201.204,8.6 C201.224,8.679 201.224,8.757 201.204,8.834 C201.183,8.913 201.175,9.02 201.175,9.157 C201.175,9.294 201.233,9.479 201.351,9.713 C201.194,9.675 201.087,9.694 201.028,9.772 C200.97,9.851 200.843,9.851 200.647,9.772 C200.802,10.202 200.853,10.554 200.794,10.827 C200.735,11.101 200.647,11.345 200.53,11.559 C200.413,11.774 200.315,12.009 200.237,12.262 C200.157,12.517 200.179,12.839 200.296,13.229 C200.179,13.229 200.091,13.258 200.032,13.317 C199.974,13.376 199.923,13.434 199.886,13.493 C199.847,13.551 199.798,13.61 199.739,13.668 C199.681,13.727 199.593,13.737 199.476,13.698 C199.593,14.558 199.63,15.417 199.593,16.276 C199.554,17.136 199.524,18.004 199.505,18.883 C199.483,19.762 199.495,20.681 199.534,21.638 C199.571,22.595 199.71,23.581 199.944,24.597 C201.351,23.776 202.472,22.722 203.313,21.433 C204.153,20.143 204.837,18.698 205.364,17.096 C205.892,15.495 206.292,13.776 206.565,11.94 C206.837,10.105 207.13,8.229 207.444,6.315 C207.796,5.963 208.067,5.534 208.265,5.026 C208.46,4.519 208.636,3.981 208.792,3.415 C208.946,2.849 209.104,2.282 209.261,1.715 C209.415,1.149 209.612,0.631 209.847,0.163 C210.433,0.241 210.931,0.426 211.341,0.719 C211.751,1.012 212.132,1.325 212.483,1.657 C212.835,1.989 213.206,2.301 213.597,2.594 C213.985,2.887 214.476,3.073 215.062,3.151 C215.53,3.815 215.96,4.46 216.351,5.084 C216.739,5.71 216.995,6.374 217.112,7.077 C216.915,7.39 216.769,7.741 216.673,8.131 C216.575,8.522 216.468,8.913 216.351,9.303 C216.233,9.694 216.077,10.056 215.882,10.387 C215.685,10.72 215.413,11.002 215.062,11.237 C214.944,12.253 214.798,13.181 214.622,14.02 C214.446,14.86 214.271,15.69 214.095,16.51 C213.919,17.331 213.772,18.18 213.655,19.059 C213.538,19.938 213.499,20.905 213.538,21.96 C213.224,22.858 212.894,23.815 212.542,24.831 C212.19,25.847 211.917,26.765 211.722,27.585 C211.097,28.093 210.608,28.698 210.257,29.401 C209.905,30.105 209.532,30.808 209.144,31.511 C208.987,31.667 208.888,31.706 208.851,31.628 C208.812,31.55 208.675,31.491 208.44,31.452 C208.478,31.608 208.478,31.726 208.44,31.804 C208.401,31.882 208.353,31.95 208.294,32.009 C208.235,32.067 208.196,32.155 208.177,32.272 C208.155,32.39 208.185,32.546 208.265,32.741 C207.716,32.976 207.229,33.308 206.8,33.737 C206.368,34.167 205.911,34.558 205.423,34.909 C204.933,35.261 204.347,35.495 203.665,35.612 C202.981,35.73 202.091,35.593 200.999,35.202 C199.396,34.03 197.981,32.683 196.751,31.159 C195.521,29.636 194.514,27.819 193.733,25.71" id="N" sketch:type="MSShapeGroup"></path>
            <path d="M175.401,35.319 C175.01,35.515 174.648,35.69 174.317,35.847 C173.984,36.003 173.604,36.081 173.175,36.081 C171.651,34.948 170.86,32.976 170.802,30.163 C170.743,27.351 171.338,23.776 172.589,19.44 C172.783,19.323 172.882,19.088 172.882,18.737 C172.592,18.415 172.218,18.16 172.051,18.171 C172.051,18.171 172.051,18.171 171.915,18.209 C171.777,18.249 171.67,18.385 171.593,18.62 C170.576,19.362 169.463,20.134 168.253,20.935 C167.041,21.735 165.781,22.478 164.474,23.161 C163.164,23.845 161.837,24.401 160.489,24.831 C159.142,25.261 157.823,25.476 156.534,25.476 C153.252,25.476 150.792,23.815 149.151,20.495 C148.893,20.011 148.577,19.787 148.448,19.997 C148.319,20.206 148.082,20.593 147.92,20.856 C147.92,20.856 147.92,20.856 147.686,21.345 C147.452,21.833 147.217,22.39 146.983,23.015 C146.749,23.64 146.543,24.274 146.368,24.919 C146.192,25.563 146.123,26.12 146.163,26.589 C145.811,26.94 145.439,27.351 145.049,27.819 C144.658,28.288 144.365,28.815 144.17,29.401 C144.092,29.714 144.131,30.007 144.288,30.28 C144.209,30.632 144.033,30.905 143.76,31.101 C143.604,31.296 143.438,31.481 143.262,31.657 C143.086,31.833 142.94,32.019 142.823,32.214 C142.744,32.409 142.695,32.604 142.676,32.8 C142.656,32.995 142.627,33.19 142.588,33.386 C142.588,33.659 142.549,33.913 142.471,34.147 C141.807,35.515 141.279,36.403 140.889,36.813 C140.498,37.224 139.971,37.429 139.307,37.429 C138.994,37.429 138.487,37.37 137.784,37.253 C137.275,36.705 136.817,35.954 136.407,34.997 C135.997,34.04 135.684,33.015 135.469,31.921 C135.254,30.827 135.156,29.724 135.176,28.61 C135.195,27.497 135.381,26.53 135.733,25.71 C135.733,25.671 135.889,25.28 136.202,24.538 C136.514,23.796 136.914,22.839 137.403,21.667 C137.891,20.495 138.447,19.196 139.073,17.77 C139.697,16.345 140.322,14.958 140.948,13.61 C141.572,12.262 142.168,11.022 142.735,9.889 C143.301,8.757 143.779,7.897 144.17,7.311 C144.482,6.842 144.766,6.403 145.02,5.993 C145.273,5.582 145.518,5.183 145.752,4.791 C146.456,3.581 147.129,2.575 147.774,1.774 C148.418,0.974 149.365,0.338 150.616,-0.13 C151.475,0.221 152.1,0.631 152.491,1.1 C152.555,1.455 152.784,2.008 152.998,2.331 L153.311,2.331 C153.74,2.448 154.102,2.556 154.395,2.653 C154.688,2.751 155.01,2.839 155.362,2.916 C155.635,3.229 155.889,3.601 156.124,4.03 C156.436,4.499 156.739,4.958 157.032,5.407 C157.325,5.856 157.559,6.306 157.735,6.754 C157.911,7.204 158.008,7.663 158.028,8.131 C158.047,8.6 157.959,9.089 157.764,9.596 C157.796,9.918 157.928,10.56 158.057,11.022 C158.057,11.022 158.057,11.022 157.94,11.647 C157.9,11.921 157.881,12.204 157.881,12.497 C157.881,12.79 157.92,13.112 157.999,13.463 C158.702,14.011 159.326,14.284 159.874,14.284 C160.498,14.284 161.075,14.137 161.603,13.844 C162.13,13.551 162.628,13.249 163.097,12.936 C163.408,12.702 163.721,12.497 164.034,12.321 C164.346,12.145 164.658,12.038 164.972,11.999 C165.675,11.335 166.309,10.749 166.876,10.241 C167.441,9.733 168.037,9.226 168.663,8.717 C169.835,7.78 170.967,6.765 172.062,5.67 C173.154,4.577 174.033,3.209 174.698,1.569 C175.088,1.334 175.498,1.217 175.929,1.217 C176.357,1.217 176.808,1.315 177.276,1.51 C177.745,1.706 178.193,1.901 178.624,2.096 C178.741,2.175 178.848,2.233 178.946,2.272 C179.043,2.312 179.131,2.351 179.21,2.389 C179.21,2.78 179.365,3.112 179.679,3.385 C179.834,3.502 179.932,3.581 179.972,3.62 C180.01,3.659 180.068,3.698 180.147,3.737 C180.733,4.05 181.104,4.362 181.261,4.674 C181.533,5.573 182.022,6.256 182.726,6.725 C182.646,7.116 182.656,7.478 182.755,7.809 C182.852,8.142 182.979,8.483 183.136,8.834 C183.174,8.952 183.213,9.069 183.253,9.186 C183.291,9.303 183.35,9.44 183.429,9.596 C182.816,9.532 182.354,9.73 182.403,10.036 C182.452,10.342 182.505,11.111 182.521,11.745 C182.521,11.745 182.521,11.745 182.345,12.409 C182.169,13.073 181.964,13.601 181.729,13.991 C181.768,15.007 181.797,15.798 181.817,16.364 C181.836,16.931 181.807,17.458 181.729,17.946 C181.65,18.435 181.543,18.894 181.407,19.323 C181.27,19.753 181.085,20.222 180.851,20.729 C181.006,23.23 180.723,25.505 180.001,27.556 C179.277,29.606 178.525,31.53 177.745,33.327 C177.666,33.522 177.578,33.718 177.481,33.913 C177.383,34.108 177.295,34.304 177.218,34.499 C176.866,34.616 176.553,34.743 176.28,34.88 C176.006,35.017 175.713,35.163 175.401,35.319" id="M" sketch:type="MSShapeGroup"></path>
            <path d="M132.327,3.034 C132.404,3.894 132.541,4.636 132.737,5.26 C132.932,5.886 133.147,6.491 133.381,7.077 C133.576,7.624 133.762,8.161 133.938,8.688 C134.114,9.215 134.24,9.851 134.319,10.592 C134.006,11.608 133.781,12.546 133.645,13.405 C133.508,14.265 133.361,15.163 133.206,16.1 C132.58,17.468 131.975,18.678 131.389,19.733 C130.803,20.788 130.334,21.706 129.983,22.487 C129.787,22.683 129.621,22.907 129.485,23.161 C129.348,23.415 129.201,23.679 129.045,23.952 C128.967,24.069 128.87,24.245 128.752,24.48 C128.635,24.714 128.537,24.87 128.459,24.948 C127.815,24.723 127.235,24.868 127.17,25.271 C127.106,25.673 126.869,26.056 126.643,26.12 C126.417,26.185 126.101,26.396 125.94,26.589 C125.779,26.782 124.961,28.009 124.124,29.313 C124.124,29.313 124.124,29.313 123.303,30.192 C122.483,31.071 121.555,31.853 120.52,32.536 C119.484,33.22 118.313,33.855 117.004,34.44 C115.695,35.026 114.221,35.671 112.581,36.374 C111.916,36.296 111.34,36.247 110.852,36.228 C110.363,36.208 109.904,36.179 109.475,36.14 C108.732,36.14 107.814,36.081 106.721,35.964 C106.604,35.651 106.428,35.437 106.194,35.319 C105.959,35.202 105.744,35.144 105.549,35.144 C104.885,34.831 104.387,34.372 104.055,33.767 C103.723,33.161 103.4,32.507 103.088,31.804 C102.893,31.374 102.697,30.974 102.502,30.603 C102.307,30.231 102.092,29.851 101.858,29.46 C102.406,29.299 102.564,28.851 102.209,28.464 C101.855,28.077 101.486,27.659 101.389,27.536 C101.389,27.536 101.389,27.536 101.272,27.438 C101.155,27.341 101.057,27.233 100.979,27.116 C100.947,26.601 100.846,23.855 100.754,21.013 C100.754,21.013 100.754,21.013 100.774,18.766 C100.793,16.521 101.096,14.518 101.682,12.76 C101.682,12.406 101.788,11.408 101.917,10.544 C101.917,10.544 101.917,10.544 102.034,9.977 C102.151,9.411 102.248,8.874 102.327,8.366 C102.444,7.507 102.62,6.706 102.854,5.963 C103.4,5.846 103.811,5.622 104.084,5.29 C104.357,4.958 104.592,4.655 104.788,4.381 C105.334,4.343 105.705,4.421 105.901,4.616 C106.096,4.812 106.291,5.124 106.487,5.553 C106.682,5.905 106.926,6.296 107.219,6.725 C107.512,7.155 107.952,7.487 108.538,7.721 C108.615,8.034 108.723,8.356 108.86,8.688 C108.996,9.02 109.143,9.382 109.299,9.772 C109.611,10.437 109.895,11.13 110.149,11.852 C110.402,12.575 110.549,13.269 110.588,13.932 C110.197,14.675 109.895,15.534 109.68,16.51 C109.465,17.487 109.329,18.473 109.27,19.469 C109.211,20.465 109.23,21.423 109.329,22.341 C109.426,23.259 109.592,24.03 109.827,24.655 C110.02,25.074 110.402,25.391 110.676,25.358 C110.95,25.326 112.181,25.005 113.41,24.646 C113.41,24.646 113.41,24.646 114.368,24.274 C115.324,23.903 116.213,23.464 117.034,22.956 C117.854,22.448 118.635,21.853 119.377,21.169 C120.119,20.485 120.901,19.694 121.721,18.795 C122.542,17.897 123.254,16.872 123.86,15.719 C124.465,14.567 124.973,13.366 125.383,12.116 C125.793,10.866 126.105,9.626 126.321,8.395 C126.535,7.165 126.682,6.003 126.76,4.909 C127.424,4.674 127.756,4.206 127.756,3.502 C127.692,3.148 127.569,2.629 127.482,2.351 C127.482,2.351 127.482,2.351 127.639,2.038 C127.874,1.296 128.42,0.729 129.28,0.338 C129.904,0.729 130.461,1.159 130.95,1.627 C131.438,2.096 131.896,2.565 132.327,3.034" id="U" sketch:type="MSShapeGroup"></path>
            <path d="M102.327,8.19 C101.35,8.19 100.295,8.259 99.163,8.395 C98.029,8.532 96.916,8.679 95.823,8.834 C95.041,8.952 94.289,9.05 93.567,9.127 C92.844,9.206 92.19,9.265 91.604,9.303 C91.33,10.163 91.057,10.925 90.784,11.588 C90.51,12.253 90.217,12.897 89.905,13.522 C89.592,14.187 89.309,14.86 89.055,15.543 C88.801,16.228 88.557,16.96 88.323,17.741 C87.932,18.366 87.609,18.942 87.356,19.469 C87.102,19.997 86.896,20.593 86.741,21.257 C86.272,21.843 85.92,22.458 85.686,23.103 C85.452,23.747 85.276,24.304 85.159,24.772 C85.03,25.159 84.757,25.665 84.553,25.896 C84.553,25.896 84.553,25.896 84.514,26.032 C84.475,26.169 84.377,26.296 84.221,26.413 C84.182,26.843 84.045,27.272 83.811,27.702 C83.732,27.897 83.674,28.083 83.635,28.259 C83.596,28.435 83.577,28.562 83.577,28.64 C83.577,29.03 83.478,29.284 83.284,29.401 C83.322,29.597 83.322,29.802 83.284,30.017 C83.244,30.231 83.205,30.437 83.166,30.632 C83.049,31.101 83.01,31.472 83.049,31.745 C83.166,31.901 83.273,32.038 83.372,32.155 C83.469,32.272 83.537,32.429 83.577,32.624 C83.811,32.78 83.987,32.878 84.104,32.917 C84.26,33.034 84.494,33.171 84.807,33.327 C85.097,33.649 85.343,34.827 85.353,35.944 C85.353,35.944 85.353,35.944 84.807,36.608 C84.221,37.35 83.225,37.722 81.819,37.722 C81.432,37.722 80.975,37.563 80.803,37.37 C80.803,37.37 80.803,37.37 80.764,37.253 C80.451,37.136 80.197,37.037 80.002,36.96 C79.807,36.881 79.631,36.726 79.475,36.491 C78.967,36.257 78.557,36.062 78.245,35.905 C77.955,35.744 77.717,35.313 77.717,34.948 C77.717,34.948 77.717,34.948 77.717,34.909 C77.443,34.558 77.238,34.167 77.102,33.737 C76.965,33.308 76.857,32.878 76.78,32.448 C76.701,32.097 76.613,31.765 76.516,31.452 C76.418,31.14 76.291,30.866 76.135,30.632 C76.057,28.366 76.271,26.452 76.78,24.89 C77.287,23.327 77.814,21.823 78.362,20.377 C78.674,19.597 78.986,18.806 79.299,18.004 C79.611,17.204 79.885,16.374 80.12,15.514 C80.41,15.192 80.871,14.414 81.145,13.786 C81.145,13.786 81.145,13.786 81.321,13.376 C81.497,12.965 81.682,12.546 81.877,12.116 C81.995,11.843 82.102,11.579 82.2,11.325 C82.297,11.071 82.385,10.847 82.463,10.651 C82.229,10.651 82.014,10.661 81.819,10.68 C81.623,10.7 81.428,10.73 81.233,10.768 C80.998,10.808 80.783,10.837 80.588,10.856 C80.393,10.876 80.197,10.885 80.002,10.885 C79.728,10.885 79.534,10.866 79.416,10.827 C78.986,11.022 78.518,11.12 78.01,11.12 C77.688,11.12 77.323,11.115 77.199,11.11 C77.199,11.11 77.199,11.11 77.102,11.09 C77.004,11.071 76.916,11.061 76.838,11.061 C76.447,11.061 76.135,11.12 75.901,11.237 L74.553,11.237 C74.231,11.237 73.888,11.241 73.791,11.247 C73.791,11.247 73.791,11.247 73.674,11.266 C73.557,11.286 73.459,11.295 73.381,11.295 C73.107,11.295 72.814,11.266 72.502,11.208 C72.189,11.149 71.858,11.022 71.506,10.827 C71.038,10.202 70.725,9.87 70.569,9.831 C70.279,9.444 69.998,8.921 69.943,8.669 C69.943,8.669 69.943,8.669 69.866,8.454 C69.787,8.239 69.709,7.995 69.631,7.721 C69.475,7.331 69.328,6.911 69.192,6.461 C69.055,6.013 68.987,5.476 68.987,4.85 C69.025,4.538 69.104,4.304 69.221,4.147 C69.338,3.991 69.435,3.854 69.514,3.737 C69.611,3.253 69.861,2.871 70.071,2.887 C70.28,2.903 70.821,2.916 71.272,2.916 C71.723,2.916 73.226,2.895 74.612,2.868 C74.612,2.868 74.612,2.868 75.901,2.77 C77.19,2.673 78.518,2.565 79.885,2.448 C80.666,2.37 81.457,2.292 82.258,2.213 C83.059,2.136 83.889,2.058 84.748,1.979 C84.904,1.627 85.061,1.296 85.217,0.983 C85.54,0.822 86.344,0.712 87.004,0.739 C87.004,0.739 87.004,0.739 87.297,0.954 C87.59,1.169 87.834,1.374 88.03,1.569 C88.889,1.491 89.758,1.403 90.637,1.305 C91.516,1.208 92.404,1.081 93.303,0.924 C94.631,0.729 95.969,0.554 97.317,0.397 C98.665,0.241 99.963,0.163 101.213,0.163 C101.76,0.163 102.287,0.183 102.795,0.221 C103.303,0.261 103.771,0.319 104.202,0.397 C104.524,0.623 104.915,1.009 105.07,1.257 C105.07,1.257 105.07,1.257 105.286,1.452 C105.5,1.647 105.725,1.843 105.959,2.038 C106.428,2.468 106.897,2.975 107.366,3.561 C107.834,4.147 108.01,5.007 107.893,6.139 C107.58,6.608 107.346,6.882 107.19,6.959 C106.9,7.346 106.531,7.649 106.37,7.633 C106.208,7.617 105.875,7.617 105.627,7.633 C105.627,7.633 105.627,7.633 105.432,7.692 C105.236,7.75 105.041,7.819 104.846,7.897 C104.689,7.976 104.533,8.043 104.377,8.102 C104.221,8.161 104.045,8.21 103.85,8.249 C103.499,8.249 103.215,8.239 103,8.219 C102.785,8.2 102.561,8.19 102.327,8.19" id="T" sketch:type="MSShapeGroup"></path>
            <path d="M68.459,3.034 C68.537,3.894 68.674,4.636 68.87,5.26 C69.064,5.886 69.28,6.491 69.514,7.077 C69.709,7.624 69.895,8.161 70.071,8.688 C70.247,9.215 70.373,9.851 70.452,10.592 C70.139,11.608 69.914,12.546 69.778,13.405 C69.641,14.265 69.494,15.163 69.338,16.1 C68.713,17.468 68.108,18.678 67.522,19.733 C66.936,20.788 66.467,21.706 66.116,22.487 C65.92,22.683 65.754,22.907 65.618,23.161 C65.48,23.415 65.334,23.679 65.178,23.952 C65.1,24.069 65.002,24.245 64.885,24.48 C64.768,24.714 64.67,24.87 64.592,24.948 C63.948,24.723 63.368,24.868 63.303,25.271 C63.239,25.673 63.001,26.056 62.776,26.12 C62.55,26.185 62.234,26.396 62.073,26.589 C61.912,26.782 61.094,28.009 60.256,29.313 C60.256,29.313 60.256,29.313 59.436,30.192 C58.616,31.071 57.687,31.853 56.653,32.536 C55.617,33.22 54.445,33.855 53.137,34.44 C51.828,35.026 50.354,35.671 48.713,36.374 C48.049,36.296 47.473,36.247 46.985,36.228 C46.496,36.208 46.037,36.179 45.608,36.14 C44.865,36.14 43.947,36.081 42.854,35.964 C42.737,35.651 42.561,35.437 42.327,35.319 C42.092,35.202 41.877,35.144 41.682,35.144 C41.018,34.831 40.52,34.372 40.188,33.767 C39.855,33.161 39.533,32.507 39.221,31.804 C39.025,31.374 38.83,30.974 38.635,30.603 C38.439,30.231 38.225,29.851 37.991,29.46 C38.539,29.299 38.697,28.851 38.342,28.464 C37.988,28.077 37.619,27.659 37.522,27.536 C37.522,27.536 37.522,27.536 37.405,27.438 C37.288,27.341 37.189,27.233 37.112,27.116 C37.08,26.601 36.978,23.855 36.887,21.013 C36.887,21.013 36.887,21.013 36.907,18.766 C36.926,16.521 37.229,14.518 37.815,12.76 C37.815,12.406 37.92,11.408 38.049,10.544 C38.049,10.544 38.049,10.544 38.166,9.977 C38.284,9.411 38.381,8.874 38.459,8.366 C38.577,7.507 38.752,6.706 38.987,5.963 C39.533,5.846 39.943,5.622 40.217,5.29 C40.49,4.958 40.725,4.655 40.92,4.381 C41.467,4.343 41.838,4.421 42.034,4.616 C42.228,4.812 42.424,5.124 42.62,5.553 C42.814,5.905 43.059,6.296 43.352,6.725 C43.645,7.155 44.084,7.487 44.67,7.721 C44.748,8.034 44.855,8.356 44.993,8.688 C45.129,9.02 45.275,9.382 45.432,9.772 C45.744,10.437 46.027,11.13 46.282,11.852 C46.535,12.575 46.682,13.269 46.721,13.932 C46.33,14.675 46.027,15.534 45.813,16.51 C45.598,17.487 45.461,18.473 45.403,19.469 C45.344,20.465 45.363,21.423 45.461,22.341 C45.559,23.259 45.725,24.03 45.959,24.655 C46.153,25.074 46.535,25.391 46.809,25.358 C47.083,25.326 48.313,25.005 49.543,24.646 C49.543,24.646 49.543,24.646 50.5,24.274 C51.457,23.903 52.346,23.464 53.166,22.956 C53.987,22.448 54.768,21.853 55.51,21.169 C56.252,20.485 57.034,19.694 57.854,18.795 C58.674,17.897 59.387,16.872 59.993,15.719 C60.598,14.567 61.106,13.366 61.516,12.116 C61.926,10.866 62.238,9.626 62.454,8.395 C62.668,7.165 62.814,6.003 62.893,4.909 C63.557,4.674 63.889,4.206 63.889,3.502 C63.825,3.148 63.702,2.629 63.615,2.351 C63.615,2.351 63.615,2.351 63.772,2.038 C64.006,1.296 64.553,0.729 65.413,0.338 C66.037,0.729 66.594,1.159 67.082,1.627 C67.57,2.096 68.029,2.565 68.459,3.034" id="U" sketch:type="MSShapeGroup"></path>
            <path d="M18.098,21.052 C19.055,20.954 20.12,20.788 21.291,20.553 C21.018,19.381 20.725,18.161 20.413,16.891 C20.1,15.622 19.768,14.362 19.416,13.112 C19.223,13.434 18.375,14.48 17.531,15.437 C17.531,15.437 17.531,15.437 16.809,16.452 C16.086,17.468 15.471,18.425 14.963,19.323 C14.729,19.674 14.495,20.026 14.26,20.377 C14.026,20.729 13.81,21.081 13.616,21.433 C13.85,21.394 14.074,21.374 14.29,21.374 C14.504,21.374 14.709,21.355 14.905,21.315 C16.077,21.237 17.141,21.149 18.098,21.052 Z M31.956,31.218 C31.891,31.347 31.579,32.054 31.262,32.79 C31.262,32.79 31.262,32.79 30.813,33.474 C30.363,34.157 29.836,34.763 29.231,35.29 C28.625,35.817 27.951,36.257 27.209,36.608 C26.467,36.96 25.686,37.154 24.866,37.194 C24.357,37.077 24.016,36.949 23.84,36.813 C23.665,36.676 23.479,36.55 23.284,36.433 C23.166,36.354 23.059,36.286 22.961,36.228 C22.863,36.169 22.775,36.12 22.698,36.081 C22.311,35.92 22.047,35.616 22.112,35.407 C22.176,35.198 22.255,34.776 22.288,34.47 C22.288,34.47 22.288,34.47 22.17,34.294 C22.053,34.118 21.819,33.874 21.467,33.561 C21.35,33.444 21.233,33.327 21.116,33.21 C20.998,33.093 20.9,32.976 20.823,32.858 C20.275,32.246 20.183,31.653 20.618,31.54 C21.053,31.427 22.143,31.054 23.039,30.71 C23.039,30.71 23.039,30.71 23.372,30.28 C23.703,29.851 23.83,29.128 23.752,28.112 C22.971,27.956 22.317,27.937 21.79,28.054 C21.262,28.171 20.725,28.308 20.178,28.464 C19.475,28.659 18.762,28.825 18.04,28.962 C17.316,29.099 16.525,29.167 15.666,29.167 C15.354,29.167 15.061,29.157 14.788,29.138 C14.514,29.118 14.221,29.089 13.909,29.05 C13.586,28.985 13.252,28.63 13.166,28.259 C13.166,28.259 13.166,28.259 13.088,28.2 C13.01,28.142 12.932,28.073 12.854,27.995 C12.658,27.8 12.453,27.536 12.239,27.204 C12.023,26.872 11.975,26.452 12.092,25.944 C11.896,25.593 11.779,25.241 11.741,24.89 C11.506,25.358 11.331,25.847 11.213,26.355 C11.084,26.677 10.847,26.967 10.686,26.999 C10.525,27.031 10.331,27.114 10.256,27.185 C10.256,27.185 10.256,27.185 10.217,27.321 C10.178,27.458 10.159,27.565 10.159,27.644 C9.998,28.191 9.795,28.706 9.709,28.786 C9.709,28.786 9.709,28.786 9.631,28.845 C9.553,28.903 9.475,28.972 9.397,29.05 C9.318,29.401 9.221,29.753 9.104,30.105 C8.987,30.456 8.87,30.788 8.752,31.101 C8.557,31.608 8.391,32.106 8.254,32.595 C8.117,33.083 8.068,33.561 8.108,34.03 C7.979,34.385 7.689,34.864 7.463,35.095 C7.463,35.095 7.463,35.095 7.229,35.231 C6.995,35.368 6.76,35.495 6.526,35.612 C6.447,35.69 6.34,35.759 6.204,35.817 C6.066,35.876 5.959,35.925 5.881,35.964 C5.785,36.318 5.547,36.635 5.354,36.667 C5.161,36.699 4.673,36.787 4.27,36.861 C4.27,36.861 4.27,36.861 4.094,36.901 C3.918,36.939 3.713,36.96 3.479,36.96 C3.157,36.928 2.55,36.616 2.131,36.267 C2.131,36.267 2.131,36.267 1.897,36.052 C1.663,35.837 1.389,35.632 1.077,35.437 C0.725,34.968 0.53,34.616 0.491,34.382 C0.452,34.147 0.413,33.933 0.374,33.737 C0.296,33.503 0.247,33.308 0.227,33.151 C0.208,32.995 0.159,32.878 0.081,32.8 C-0.338,32.413 -0.536,31.978 -0.359,31.833 C-0.182,31.688 -0.023,31.345 -0.007,31.071 C0.009,30.798 0.747,28.815 1.633,26.667 C1.633,26.667 1.633,26.667 2.512,24.831 C3.391,22.995 4.299,21.12 5.237,19.206 C5.549,18.581 5.852,17.956 6.145,17.331 C6.438,16.706 6.74,16.081 7.053,15.456 C7.014,15.338 6.995,15.202 6.995,15.045 C6.995,14.89 7.033,14.714 7.112,14.518 C7.541,13.855 7.893,13.258 8.166,12.731 C8.439,12.204 8.713,11.667 8.987,11.12 C9.299,10.456 9.621,9.812 9.954,9.186 C10.285,8.562 10.705,7.917 11.213,7.252 C11.729,7.027 12.265,6.803 12.404,6.754 C12.404,6.754 12.404,6.754 12.561,6.696 C12.717,6.637 12.893,6.608 13.088,6.608 C13.572,6.672 14.89,6.176 16.018,5.505 C16.018,5.505 16.018,5.505 16.838,4.586 C17.659,3.669 18.498,2.565 19.358,1.276 C19.68,0.825 20.115,0.561 20.325,0.69 C20.534,0.819 20.916,1.025 21.174,1.149 C21.174,1.149 21.174,1.149 21.526,1.247 C21.877,1.345 22.248,1.452 22.639,1.569 C23.342,1.726 24.006,1.901 24.631,2.096 C25.256,2.292 25.764,2.585 26.155,2.975 C26.389,3.601 26.525,4.069 26.565,4.381 C26.604,4.694 26.662,5.007 26.741,5.319 C26.858,5.983 26.965,6.647 27.063,7.311 C27.16,7.976 27.229,8.717 27.268,9.538 C27.463,10.202 27.629,10.856 27.766,11.501 C27.902,12.145 28.03,12.8 28.147,13.463 C28.342,14.401 28.537,15.309 28.733,16.188 C28.928,17.067 29.182,17.897 29.495,18.678 C29.807,18.678 30.002,18.698 30.081,18.737 C30.275,18.659 30.48,18.601 30.696,18.561 C30.91,18.522 31.154,18.483 31.428,18.444 C31.783,18.412 32.125,18.517 32.19,18.678 C32.254,18.839 32.413,19.147 32.541,19.362 C32.541,19.362 32.541,19.362 32.893,19.557 C33.4,19.597 33.772,19.704 34.006,19.879 C34.241,20.055 34.455,20.241 34.651,20.436 C34.807,20.593 34.963,20.71 35.12,20.788 C35.603,20.981 35.893,21.337 35.764,21.579 C35.635,21.821 35.103,22.638 34.582,23.396 C34.582,23.396 34.582,23.396 33.86,24.04 C33.137,24.685 32.326,25.222 31.428,25.651 C31.467,25.886 31.496,26.11 31.516,26.325 C31.535,26.54 31.584,26.765 31.663,26.999 C31.78,27.663 31.877,28.347 31.956,29.05 C32.033,29.753 32.033,30.476 31.956,31.218 L31.956,31.218 Z" id="A" sketch:type="MSShapeGroup"></path>
        </g>
    </g>
</svg>