<?xml version="1.0" encoding="utf-8"?>
<!-- Generator: Adobe Illustrator 14.0.0, SVG Export Plug-In . SVG Version: 6.00 Build 43363)  -->
<!DOCTYPE svg PUBLIC "-//W3C//DTD SVG 1.1//EN" "http://www.w3.org/Graphics/SVG/1.1/DTD/svg11.dtd">
<svg version="1.1" id="Layer_1" xmlns="http://www.w3.org/2000/svg" xmlns:xlink="http://www.w3.org/1999/xlink" x="0px" y="0px"
	 width="600px" height="300px" viewBox="0 0 600 300" enable-background="new 0 0 600 300" xml:space="preserve">
<g>
	<g>
		<g>
			<path fill="#FFFFFF" d="M176.132,161.426c-0.064,0.129-0.376,0.836-0.694,1.572c0,0,0,0-0.449,0.684
				c-0.45,0.684-0.977,1.289-1.582,1.816c-0.606,0.527-1.28,0.967-2.021,1.318c-0.743,0.352-1.523,0.546-2.344,0.586
				c-0.508-0.117-0.85-0.245-1.025-0.381c-0.176-0.138-0.362-0.264-0.557-0.381c-0.117-0.078-0.225-0.146-0.322-0.205
				c-0.098-0.059-0.186-0.107-0.264-0.146c-0.387-0.161-0.65-0.465-0.586-0.674s0.144-0.631,0.176-0.938c0,0,0,0-0.117-0.176
				s-0.352-0.42-0.703-0.732c-0.117-0.117-0.234-0.234-0.352-0.352s-0.215-0.234-0.293-0.352c-0.548-0.612-0.64-1.205-0.205-1.318
				s1.525-0.486,2.421-0.83c0,0,0,0,0.333-0.43c0.332-0.43,0.458-1.152,0.381-2.168c-0.782-0.156-1.436-0.176-1.963-0.059
				s-1.065,0.254-1.611,0.41c-0.703,0.195-1.417,0.361-2.139,0.498c-0.723,0.137-1.514,0.205-2.373,0.205
				c-0.313,0-0.606-0.01-0.879-0.029c-0.274-0.02-0.567-0.049-0.879-0.088c-0.322-0.064-0.656-0.42-0.743-0.791c0,0,0,0-0.078-0.059
				c-0.079-0.059-0.157-0.127-0.234-0.205c-0.196-0.195-0.401-0.459-0.615-0.791c-0.215-0.332-0.264-0.752-0.146-1.26
				c-0.196-0.352-0.313-0.703-0.352-1.055c-0.234,0.469-0.41,0.957-0.527,1.465c-0.129,0.322-0.366,0.612-0.527,0.645
				s-0.354,0.115-0.43,0.186c0,0,0,0-0.039,0.137c-0.04,0.137-0.059,0.244-0.059,0.322c-0.161,0.548-0.363,1.062-0.45,1.143
				c0,0,0,0-0.078,0.059c-0.079,0.059-0.157,0.127-0.234,0.205c-0.079,0.352-0.176,0.703-0.293,1.055s-0.234,0.684-0.352,0.996
				c-0.196,0.508-0.362,1.006-0.498,1.494c-0.137,0.488-0.186,0.967-0.146,1.436c-0.129,0.354-0.419,0.834-0.645,1.064
				c0,0,0,0-0.234,0.137s-0.469,0.264-0.703,0.381c-0.079,0.078-0.186,0.146-0.322,0.205c-0.137,0.059-0.245,0.107-0.322,0.146
				c-0.097,0.354-0.334,0.671-0.527,0.703s-0.681,0.12-1.084,0.194c0,0,0,0-0.176,0.04c-0.176,0.038-0.381,0.059-0.615,0.059
				c-0.322-0.032-0.929-0.344-1.348-0.693c0,0,0,0-0.234-0.215s-0.508-0.42-0.82-0.615c-0.352-0.469-0.546-0.82-0.586-1.055
				c-0.039-0.234-0.078-0.449-0.117-0.645c-0.078-0.234-0.126-0.43-0.146-0.586c-0.019-0.156-0.068-0.273-0.146-0.352
				c-0.419-0.387-0.617-0.822-0.439-0.967s0.335-0.488,0.352-0.762s0.754-2.256,1.641-4.404c0,0,0,0,0.879-1.836
				s1.787-3.711,2.725-5.625c0.312-0.625,0.615-1.25,0.908-1.875c0.293-0.625,0.595-1.25,0.908-1.875
				c-0.04-0.117-0.059-0.253-0.059-0.41c0-0.156,0.039-0.332,0.117-0.527c0.429-0.664,0.781-1.26,1.055-1.787
				c0.273-0.527,0.546-1.064,0.82-1.611c0.312-0.664,0.634-1.308,0.967-1.934c0.332-0.625,0.751-1.269,1.26-1.934
				c0.516-0.226,1.052-0.45,1.191-0.498c0,0,0,0,0.157-0.059c0.156-0.059,0.332-0.088,0.527-0.088
				c0.483,0.064,1.802-0.432,2.93-1.103c0,0,0,0,0.82-0.918c0.82-0.917,1.66-2.021,2.52-3.311c0.322-0.451,0.757-0.715,0.967-0.586
				s0.592,0.335,0.85,0.459c0,0,0,0,0.352,0.097c0.352,0.098,0.722,0.205,1.113,0.322c0.703,0.157,1.367,0.333,1.992,0.527
				c0.625,0.196,1.132,0.489,1.523,0.879c0.234,0.625,0.371,1.094,0.41,1.406c0.039,0.313,0.097,0.625,0.176,0.938
				c0.117,0.665,0.224,1.329,0.322,1.992c0.097,0.665,0.166,1.406,0.205,2.227c0.195,0.665,0.361,1.318,0.498,1.963
				c0.136,0.645,0.264,1.299,0.381,1.963c0.195,0.938,0.39,1.846,0.586,2.725c0.195,0.879,0.449,1.709,0.762,2.49
				c0.312,0,0.507,0.02,0.586,0.059c0.195-0.078,0.4-0.136,0.615-0.176c0.214-0.039,0.458-0.078,0.732-0.117
				c0.354-0.032,0.697,0.073,0.762,0.234s0.223,0.469,0.352,0.684c0,0,0,0,0.352,0.195c0.507,0.04,0.879,0.146,1.113,0.322
				s0.449,0.362,0.645,0.557c0.156,0.157,0.312,0.274,0.469,0.352c0.483,0.194,0.773,0.549,0.645,0.792s-0.661,1.059-1.182,1.816
				c0,0,0,0-0.722,0.645c-0.723,0.645-1.534,1.182-2.432,1.611c0.039,0.234,0.068,0.459,0.088,0.674
				c0.019,0.215,0.068,0.439,0.146,0.674c0.117,0.664,0.214,1.348,0.293,2.051C176.21,159.961,176.21,160.684,176.132,161.426z
				 M159.082,151.523c1.172-0.078,2.236-0.166,3.193-0.264c0.957-0.098,2.021-0.264,3.193-0.499
				c-0.274-1.172-0.567-2.392-0.879-3.662c-0.313-1.269-0.645-2.529-0.996-3.779c-0.193,0.322-1.042,1.368-1.885,2.325
				c0,0,0,0-0.722,1.015c-0.723,1.016-1.338,1.973-1.846,2.871c-0.234,0.352-0.469,0.703-0.703,1.055s-0.45,0.704-0.645,1.055
				c0.234-0.039,0.458-0.059,0.674-0.059C158.681,151.582,158.886,151.562,159.082,151.523z"/>
			<g>
				<path fill="#FFFFFF" d="M175.23,161.395c-1.002,2.22-3.191,6.358-6.447,5.149c-1.377-0.512-0.881-1.437-1.541-2.426
					c-1.438-2.157-1.645-1.507,0.577-2.896c0.994-0.621,1.048-2.013,1.077-3.018c0.007-0.232-0.139-0.395-0.38-0.424
					c-1.95-0.239-3.427,0.165-5.359,0.657c-4.375,1.116-5.059,0.047-6.274-3.6c-0.246-0.736-1.743-0.155-1.933,0.374
					c-0.549,1.525-1.908,2.593-2.344,4.16c-0.721,2.595-1.247,6.498-4.295,7.192c-3.307,0.753-3.253-5.296-2.681-6.9
					c1.605-4.505,3.987-8.725,6.04-13.033c1.247-2.617,2.38-8.081,5.298-9.253c1.923-0.772,3.486-0.821,4.949-2.554
					c0.512-0.607,2.029-3.154,2.89-2.916c2.369,0.655,4.639,1.185,5.144,3.876c0.838,4.471,1.229,9.027,2.754,13.359
					c0.088,0.25,0.369,0.285,0.595,0.307c1.131,0.113,2.009,0.24,3.003,0.791c3.494,1.936,2.09,3.392-1.303,5.312
					c-0.203,0.115-0.394,0.315-0.362,0.563c0.241,1.847,0.626,3.527,0.526,5.423c-0.043,0.823,1.899,0.439,1.935-0.23
					c0.061-1.152,0.013-2.2-0.133-3.352c-0.265-2.087,0.19-2.26,1.849-3.537c0.716-0.552,2.967-2.728,1.799-3.526
					c-1.53-1.047-2.74-2.266-4.422-2.783c-1.05-0.323-1.442,0.837-1.98-0.693c-0.668-1.901-0.903-3.999-1.303-5.969
					c-0.337-1.662-0.265-7.574-1.682-8.65c-1.624-1.234-4.197-2.008-6.138-2.441c-1.609-0.358-2.557,1.238-3.31,2.322
					c-1.493,2.148-2.658,3.044-5.177,3.72c-0.605,0.162-1.295,0.43-1.816,0.756c-1.554,0.971-4.09,6-4.465,7.686
					c-0.787,3.543-2.97,6.907-4.535,10.166c-2.099,4.371-4.456,8.108-0.374,11.851c2.17,1.989,5.27,0.212,7.006-1.382
					c1.611-1.479,1.578-4.858,2.566-6.848c0.596-1.198,1.229-1.781,1.9-3.646c-0.645,0.124-1.289,0.249-1.933,0.374
					c1.18,3.54,1.763,5.097,6.002,4.522c2.51-0.341,9.007-0.925,3.453,1.452c-1.026,0.438-0.952,1.341-0.303,2.119
					c1.375,1.649,1.47,4.41,4.567,4.518c3.96,0.139,6.893-3.254,8.363-6.511C177.43,160.58,175.499,160.799,175.23,161.395z"/>
				<path fill="#FFFFFF" d="M158.955,152.078c2.148-0.148,4.27-0.353,6.387-0.762c0.338-0.065,1.215-0.293,1.092-0.814
					c-0.585-2.491-1.189-4.976-1.875-7.441c-0.197-0.708-1.608-0.159-1.868,0.228c-0.627,0.933-1.449,1.711-2.099,2.625
					c-1.309,1.839-2.565,3.745-3.702,5.695c-0.296,0.509,0.427,0.631,0.776,0.586C158.093,152.141,158.526,152.119,158.955,152.078
					c0.961-0.092,1.59-1.237,0.253-1.109c-0.432,0.041-0.86,0.062-1.289,0.117c0.259,0.195,0.517,0.391,0.776,0.586
					c1.076-1.848,2.258-3.667,3.498-5.409c0.718-1.01,1.611-1.882,2.303-2.912c-0.623,0.076-1.246,0.152-1.868,0.228
					c0.686,2.465,1.29,4.951,1.875,7.442c0.364-0.271,0.728-0.543,1.092-0.814c-2.116,0.409-4.238,0.614-6.387,0.762
					C158.239,151.035,157.619,152.171,158.955,152.078z"/>
			</g>
		</g>
	</g>
</g>
</svg>
